<svg width="47" height="57" viewBox="0 0 47 57" fill="none" xmlns="http://www.w3.org/2000/svg">
<path d="M45.1184 15.6238C44.8372 13.9621 44.1651 12.6073 43.254 11.5742C42.5054 10.7254 42.092 9.60023 42.073 8.43232C42.0716 8.35046 42.072 8.26833 42.0746 8.18616L42.1738 5.00454C42.2301 3.20014 40.964 1.63389 39.2906 1.53219C37.5545 1.42665 36.084 2.884 36.0259 4.74385L35.9715 6.48914C35.9223 8.06675 35.1494 9.52 33.9061 10.3623C32.6922 11.1847 31.6636 12.4316 31.0123 14.1235C28.7536 19.991 25.3472 25.3505 20.9483 29.8012C16.5494 34.2518 11.3704 37.5785 5.79219 39.64C2.30338 40.9292 0.64448 44.2571 0.746859 47.5049C0.849647 50.766 2.72826 53.9463 6.31468 54.9012C10.67 56.0608 15.2866 56.2273 19.8706 55.2759C31.9089 52.7775 41.5539 43.0192 44.6214 30.2344C45.7904 25.3611 45.9236 20.3827 45.1184 15.6238Z" fill="#EEBF00"/>
<path d="M42.073 8.43232C42.0716 8.35046 42.072 8.26833 42.0746 8.18616L42.1266 6.51728L42.1738 5.00454C42.2301 3.20014 40.964 1.63389 39.2906 1.53219C37.5545 1.42665 36.084 2.884 36.0259 4.74385L35.9756 6.35728L35.9715 6.48914C35.9223 8.06676 35.1494 9.52 33.9061 10.3623C32.6922 11.1847 31.6635 12.4316 31.0123 14.1235C28.7536 19.991 25.3472 25.3505 20.9483 29.8012C16.5494 34.2518 11.3704 37.5785 5.79219 39.64C2.30338 40.9293 0.644479 44.2572 0.746859 47.5049C11.1894 48.9051 21.7078 45.3969 29.6185 37.8744C37.4764 30.402 42.0054 19.6871 42.073 8.43232Z" fill="#FFD422"/>
</svg>
